<?xml version="1.0" encoding="UTF-8"?>
<svg width="32px" height="25px" viewBox="0 0 32 25" version="1.1" xmlns="http://www.w3.org/2000/svg" xmlns:xlink="http://www.w3.org/1999/xlink">
    <!-- Generator: Sketch 41.1 (35376) - http://www.bohemiancoding.com/sketch -->
    <title>Shape</title>
    <desc>Created with Sketch.</desc>
    <defs></defs>
    <g id="Signup-Step-Design" stroke="none" stroke-width="1" fill="none" fill-rule="evenodd">
        <g id="Step-2" transform="translate(-683.000000, -325.000000)" fill="#FFFFFF">
            <path d="M698.909091,334.375 C696.272955,334.375 694.136364,336.474375 694.136364,339.0625 C694.136364,341.651563 696.272955,343.75 698.909091,343.75 C701.544591,343.75 703.681818,341.651563 703.681818,339.0625 C703.681818,336.474375 701.544591,334.375 698.909091,334.375 Z M711.636364,329.6875 L707.818182,329.6875 C707.293182,329.6875 706.727455,329.2875 706.561682,328.798125 L705.574682,325.889063 C705.408273,325.4 704.843182,325 704.318182,325 L693.5,325 C692.975,325 692.409273,325.4 692.2435,325.889375 L691.2565,328.798437 C691.090091,329.2875 690.525,329.6875 690,329.6875 L686.181818,329.6875 C684.431818,329.6875 683,331.09375 683,332.8125 L683,346.875 C683,348.59375 684.431818,350 686.181818,350 L711.636364,350 C713.386364,350 714.818182,348.59375 714.818182,346.875 L714.818182,332.8125 C714.818182,331.09375 713.386364,329.6875 711.636364,329.6875 Z M698.909091,346.875 C694.515955,346.875 690.954545,343.377187 690.954545,339.0625 C690.954545,334.748125 694.515955,331.25 698.909091,331.25 C703.301591,331.25 706.863636,334.748125 706.863636,339.0625 C706.863636,343.377187 703.301591,346.875 698.909091,346.875 Z M710.522727,334.997812 C709.908,334.997812 709.409091,334.508437 709.409091,333.904062 C709.409091,333.300312 709.908,332.810312 710.522727,332.810312 C711.138091,332.810312 711.636364,333.300312 711.636364,333.904062 C711.636364,334.508437 711.137773,334.997812 710.522727,334.997812 Z" id="Shape"></path>
        </g>
    </g>
</svg>