<?xml version="1.0" encoding="UTF-8"?>
<svg width="7px" height="4px" viewBox="0 0 7 4" version="1.1" xmlns="http://www.w3.org/2000/svg" xmlns:xlink="http://www.w3.org/1999/xlink">
    <!-- Generator: Sketch 41.1 (35376) - http://www.bohemiancoding.com/sketch -->
    <title>caret-down</title>
    <desc>Created with Sketch.</desc>
    <defs></defs>
    <g id="Signup-Step-Design" stroke="none" stroke-width="1" fill="none" fill-rule="evenodd">
        <g id="Step-1" transform="translate(-799.000000, -288.000000)" fill="#AFAFAF">
            <g id="Group-3" transform="translate(350.000000, 242.000000)">
                <g id="Group-2" transform="translate(34.000000, 33.000000)">
                    <g id="caret-down" transform="translate(415.000000, 13.000000)">
                        <path d="M6.85510239,0.153662651 C6.76876109,0.0665060241 6.66641297,0.0229638554 6.54815358,0.0229638554 L0.436580205,0.0229638554 C0.318273038,0.0229638554 0.215996587,0.0665060241 0.129583618,0.153662651 C0.0431706485,0.240915663 0,0.344072289 0,0.463325301 C0,0.582554217 0.0431706485,0.685710843 0.129583618,0.772891566 L3.18538225,3.85498795 C3.27189078,3.94214458 3.37416724,3.98578313 3.49237884,3.98578313 C3.61059044,3.98578313 3.71296246,3.94214458 3.79930375,3.85498795 L6.85510239,0.77286747 C6.9414198,0.685710843 6.98475768,0.582554217 6.98475768,0.463301205 C6.98475768,0.344072289 6.9414198,0.240915663 6.85510239,0.153662651 Z" id="Shape"></path>
                    </g>
                </g>
            </g>
        </g>
    </g>
</svg>