<?xml version="1.0" encoding="UTF-8"?>
<svg width="22px" height="22px" viewBox="0 0 22 22" version="1.1" xmlns="http://www.w3.org/2000/svg" xmlns:xlink="http://www.w3.org/1999/xlink">
    <!-- Generator: Sketch 41.1 (35376) - http://www.bohemiancoding.com/sketch -->
    <title>Layer_1_107_</title>
    <desc>Created with Sketch.</desc>
    <defs></defs>
    <g id="Signup-Step-Design" stroke="none" stroke-width="1" fill="none" fill-rule="evenodd">
        <g id="Step-1" transform="translate(-1116.000000, -21.000000)" fill="#595959">
            <g id="nav" transform="translate(249.000000, 7.000000)">
                <g id="shopping-cart-(2)" transform="translate(867.000000, 0.000000)">
                    <g id="Layer_1_107_" transform="translate(0.000000, 14.000000)">
                        <g id="Group">
                            <path d="M21.6034867,3.43894737 C21.3863833,3.18536842 21.0738,3.03947368 20.7441667,3.03947368 L5.03657,3.03947368 L4.81492,1.69168421 C4.72398667,1.13357895 4.24999667,0.723684211 3.69416667,0.723684211 L1.13666667,0.723684211 C0.50809,0.723684211 0,1.24126316 0,1.88157895 C0,2.52189474 0.50809,3.03947368 1.13666667,3.03947368 L2.73141,3.03947368 L4.84561,15.9662105 C4.85470333,16.0183158 4.88084667,16.0611579 4.89676,16.1097895 C4.91494667,16.1711579 4.92972333,16.2290526 4.95814,16.2846316 C4.99451333,16.3610526 5.04339,16.4258947 5.09454,16.4918947 C5.12977667,16.5370526 5.16160333,16.5822105 5.20252333,16.6215789 C5.26845,16.6841053 5.34460667,16.7281053 5.4219,16.7721053 C5.46509333,16.7964211 5.50260333,16.8288421 5.54920667,16.8473684 C5.68106,16.9017895 5.81973333,16.9342105 5.96636333,16.9342105 L18.4708333,16.9342105 C19.09941,16.9342105 19.6075,16.4166316 19.6075,15.7763158 C19.6075,15.136 19.09941,14.6184211 18.4708333,14.6184211 L6.93025667,14.6184211 L6.74157,13.4605263 L19.6075,13.4605263 C20.17356,13.4605263 20.6532333,13.0367368 20.7328,12.4670526 L21.8694667,4.36178947 C21.91607,4.02831579 21.8183167,3.69136842 21.6034867,3.43894737 Z M19.43359,5.35526316 L19.10964,7.67105263 L15.0608333,7.67105263 L15.0608333,5.35526316 L19.43359,5.35526316 Z M13.9241667,5.35526316 L13.9241667,7.67105263 L10.5141667,7.67105263 L10.5141667,5.35526316 L13.9241667,5.35526316 Z M13.9241667,8.82894737 L13.9241667,11.1447368 L10.5141667,11.1447368 L10.5141667,8.82894737 L13.9241667,8.82894737 Z M9.3775,5.35526316 L9.3775,7.67105263 L5.9675,7.67105263 C5.90725667,7.67105263 5.85269667,7.68842105 5.79927333,7.70578947 L5.41508,5.35526316 L9.3775,5.35526316 Z M5.98341333,8.82894737 L9.3775,8.82894737 L9.3775,11.1447368 L6.36192333,11.1447368 L5.98341333,8.82894737 Z M15.0608333,11.1447368 L15.0608333,8.82894737 L18.94596,8.82894737 L18.62201,11.1447368 L15.0608333,11.1447368 Z" id="Shape"></path>
                            <ellipse id="Oval" cx="7.6725" cy="19.8289474" rx="1.705" ry="1.73684211"></ellipse>
                            <ellipse id="Oval" cx="17.9025" cy="19.8289474" rx="1.705" ry="1.73684211"></ellipse>
                        </g>
                    </g>
                </g>
            </g>
        </g>
    </g>
</svg>