<?xml version="1.0" encoding="iso-8859-1"?>
<!-- Generator: Adobe Illustrator 19.0.0, SVG Export Plug-In . SVG Version: 6.00 Build 0)  -->
<svg xmlns="http://www.w3.org/2000/svg" xmlns:xlink="http://www.w3.org/1999/xlink" version="1.1" id="Layer_1" x="0px" y="0px" viewBox="0 0 512 512" style="enable-background:new 0 0 512 512;" xml:space="preserve" width="512px" height="512px">
<g>
	<g>
		<path d="M405.328,10.66H298.672h-85.344H106.672L0,117.332v75.328v308.68h394.672C459.469,501.34,512,448.809,512,383.996V207.23    v-89.898L405.328,10.66z M396.5,31.996l85.328,85.336h-165.39l-14.219-85.336H396.5z M231.407,31.996h49.187l14.219,85.336    h-77.625L231.407,31.996z M213.328,138.66h85.344v61.484l-11.797-5.898l-9.547-4.766l-9.531,4.766L256,200.145l-11.797-5.898    l-9.531-4.766l-9.547,4.766l-11.797,5.898V138.66z M115.5,31.996h94.281l-14.234,85.336H30.172L115.5,31.996z M462.547,451.871    c-18.125,18.141-42.234,28.125-67.875,28.125c-25.656,0-49.75-9.984-67.891-28.125c-18.125-18.125-28.109-42.234-28.109-67.875    s9.984-49.75,28.109-67.875c18.141-18.141,42.234-28.125,67.891-28.125c25.641,0,49.75,9.984,67.875,28.125    c18.141,18.125,28.125,42.234,28.125,67.875S480.688,433.746,462.547,451.871z M490.672,316.527    c-21.234-30.156-56.313-49.867-96-49.867c-64.812,0-117.344,52.523-117.344,117.336c0,39.688,19.719,74.766,49.875,96H21.328    V138.66H192v74.672l21.328,10.664l21.344-10.664L256,223.996l21.328-10.664l21.344,10.664L320,213.332V138.66h170.672V316.527z" fill="#595959"/>
	</g>
</g>
<g>
	<g>
		<path d="M160,394.652H53.328c-5.891,0-10.656,4.781-10.656,10.688c0,5.875,4.766,10.656,10.656,10.656H160    c5.891,0,10.672-4.781,10.672-10.656C170.672,399.434,165.891,394.652,160,394.652z" fill="#595959"/>
	</g>
</g>
<g>
	<g>
		<path d="M106.672,437.34H53.328c-5.891,0-10.656,4.766-10.656,10.656s4.766,10.656,10.656,10.656h53.344    c5.891,0,10.656-4.766,10.656-10.656S112.562,437.34,106.672,437.34z" fill="#595959"/>
	</g>
</g>
<g>
	<g>
		<path d="M447.469,421.715h-0.016l-42.125-42.125v-59.594c0-5.891-4.766-10.656-10.656-10.656S384,314.105,384,319.996v64    c0,2.938,1.188,5.625,3.125,7.531l45.25,45.25v0.016c4.172,4.172,10.922,4.172,15.094,0    C451.625,432.621,451.625,425.871,447.469,421.715z" fill="#595959"/>
	</g>
</g>
<g>
</g>
<g>
</g>
<g>
</g>
<g>
</g>
<g>
</g>
<g>
</g>
<g>
</g>
<g>
</g>
<g>
</g>
<g>
</g>
<g>
</g>
<g>
</g>
<g>
</g>
<g>
</g>
<g>
</g>
</svg>
