<?xml version="1.0" encoding="UTF-8"?>
<svg width="16px" height="16px" viewBox="0 0 16 16" version="1.1" xmlns="http://www.w3.org/2000/svg" xmlns:xlink="http://www.w3.org/1999/xlink">
    <!-- Generator: Sketch 41.1 (35376) - http://www.bohemiancoding.com/sketch -->
    <title>Shape</title>
    <desc>Created with Sketch.</desc>
    <defs></defs>
    <g id="Signup-Step-Design" stroke="none" stroke-width="1" fill="none" fill-rule="evenodd">
        <g id="Step-2" transform="translate(-474.000000, -78.000000)" fill="#49A09D">
            <g id="Group-3" transform="translate(350.000000, 78.000000)">
                <g id="Group-2" transform="translate(124.000000, 0.000000)">
                    <path d="M8,0 C3.56363636,0 0,3.56363636 0,8 C0,12.4363636 3.56363636,16 8,16 C12.4363636,16 16,12.4363636 16,8 C16,3.56363636 12.4363636,0 8,0 Z M12.6181818,5.49090909 L12.6181818,5.49090909 L6.8,11.5272727 C6.72727273,11.6 6.65454545,11.6363636 6.54545455,11.6363636 C6.43636364,11.6363636 6.32727273,11.6 6.29090909,11.5272727 L3.45454545,8.47272727 L3.38181818,8.4 C3.30909091,8.32727273 3.27272727,8.21818182 3.27272727,8.14545455 C3.27272727,8.07272727 3.30909091,7.96363636 3.38181818,7.89090909 L3.89090909,7.38181818 C4.03636364,7.23636364 4.25454545,7.23636364 4.4,7.38181818 L4.43636364,7.41818182 L6.43636364,9.56363636 C6.50909091,9.63636364 6.61818182,9.63636364 6.69090909,9.56363636 L11.5636364,4.50909091 L11.6,4.50909091 C11.7454545,4.36363636 11.9636364,4.36363636 12.1090909,4.50909091 L12.6181818,5.01818182 C12.7636364,5.12727273 12.7636364,5.34545455 12.6181818,5.49090909 L12.6181818,5.49090909 Z" id="Shape"></path>
                </g>
            </g>
        </g>
    </g>
</svg>