<?xml version="1.0" encoding="UTF-8"?>
<svg width="64px" height="41px" viewBox="0 0 64 41" version="1.1" xmlns="http://www.w3.org/2000/svg" xmlns:xlink="http://www.w3.org/1999/xlink">
    <!-- Generator: Sketch 41.1 (35376) - http://www.bohemiancoding.com/sketch -->
    <title>Group 7</title>
    <desc>Created with Sketch.</desc>
    <defs></defs>
    <g id="Signup-Step-Design" stroke="none" stroke-width="1" fill="none" fill-rule="evenodd">
        <g id="Step-3-No,-Inventory-Yes" transform="translate(-427.000000, -579.000000)">
            <g id="Group-3" transform="translate(350.000000, 78.000000)">
                <g id="Group-2" transform="translate(36.000000, 0.000000)">
                    <g id="Group-6" transform="translate(0.000000, 205.000000)">
                        <g id="Group-5" transform="translate(0.000000, 284.000000)">
                            <g id="Group-7" transform="translate(41.000000, 12.000000)">
                                <text id="Drag-Files-To-Upload" font-family="BrandonGrotesque-Regular, Brandon Grotesque" font-size="8" font-weight="normal" line-spacing="14" fill="#888888">
                                    <tspan x="0" y="36">Drag Files To Upload</tspan>
                                </text>
                                <path d="M41.5513347,6.78311111 C41.2416838,4.99777778 40.3305955,3.36844444 38.9371663,2.132 C37.3889117,0.756888889 35.3761807,0 33.2800821,0 C31.6603696,0 30.0823409,0.450666667 28.7305955,1.3 C27.6051335,2.00488889 26.6702259,2.95822222 26.0092402,4.07911111 C25.7234086,4.02711111 25.4256674,3.99822222 25.1279261,3.99822222 C22.5971253,3.99822222 20.5367556,5.99733333 20.5367556,8.45288889 C20.5367556,8.77066667 20.5724846,9.07688889 20.6320329,9.37733333 C18.9944559,10.5328889 18,12.3933333 18,14.3751111 C18,15.9755556 18.613347,17.5297778 19.7328542,18.7604444 C20.8821355,20.02 22.400616,20.7653333 24.0203285,20.852 L24.0679671,20.852 L29.189117,20.852 C29.635729,20.852 29.9930185,20.5053333 29.9930185,20.072 C29.9930185,19.6386667 29.635729,19.292 29.189117,19.292 L24.0917864,19.292 C21.6562628,19.1475556 19.6078029,16.9 19.6078029,14.3693333 C19.6078029,12.7342222 20.5129363,11.2088889 21.9718686,10.3826667 C22.3112936,10.192 22.4542094,9.79333333 22.3232033,9.43511111 C22.2041068,9.12311111 22.1445585,8.79377778 22.1445585,8.44133333 C22.1445585,6.84666667 23.4843943,5.54666667 25.1279261,5.54666667 C25.4792608,5.54666667 25.8246407,5.60444444 26.1462012,5.72 C26.5392197,5.85866667 26.973922,5.68533333 27.1525667,5.32133333 C28.2661191,3.02755556 30.6718686,1.54844444 33.286037,1.54844444 C36.799384,1.54844444 39.699384,4.10222222 40.0328542,7.488 C40.0685832,7.84044444 40.3425051,8.12355556 40.6997947,8.18133333 C43.349692,8.62044444 45.3505133,10.9951111 45.3505133,13.7048889 C45.3505133,16.5764444 43.0221766,19.0724444 40.1519507,19.2862222 L35.7632444,19.2862222 C35.3166324,19.2862222 34.9593429,19.6328889 34.9593429,20.0662222 C34.9593429,20.4995556 35.3166324,20.8462222 35.7632444,20.8462222 L40.1817248,20.8462222 L40.2412731,20.8462222 C42.0574949,20.7191111 43.7546201,19.9102222 45.0170431,18.5582222 C46.2735113,17.2177778 46.9583162,15.496 46.9583162,13.7048889 C46.9523614,10.4635556 44.6716632,7.58044444 41.5513347,6.78311111 Z" id="Shape" fill="#49A09D"></path>
                                <path d="M36.8835216,15.4657778 C37.1991273,15.1595556 37.1991273,14.6684444 36.8835216,14.3622222 L32.6258214,10.2311111 C32.4769507,10.0866667 32.2685318,10 32.0601129,10 C31.851694,10 31.6432752,10.0808889 31.4944045,10.2311111 L27.2367043,14.3622222 C26.9210986,14.6684444 26.9210986,15.1595556 27.2367043,15.4657778 C27.3915298,15.616 27.5999487,15.6968889 27.8024127,15.6968889 C28.0048768,15.6968889 28.2132957,15.6217778 28.3681211,15.4657778 L31.2562115,12.6635556 L31.2562115,25.5422222 C31.2562115,25.9755556 31.613501,26.3222222 32.0601129,26.3222222 C32.5067248,26.3222222 32.8640144,25.9755556 32.8640144,25.5422222 L32.8640144,12.6635556 L35.7521047,15.4657778 C36.0617556,15.772 36.5679158,15.772 36.8835216,15.4657778 Z" id="Shape" fill="#49A09D"></path>
                            </g>
                        </g>
                    </g>
                </g>
            </g>
        </g>
    </g>
</svg>